<svg viewBox="0 0 60 60" fill="none" xmlns="http://www.w3.org/2000/svg">
    <!-- Hexagon -->
    <defs>
        <linearGradient id="goldGradient" x1="0%" y1="0%" x2="100%" y2="100%">
            <stop offset="0%" style="stop-color:#FBBF24"/>
            <stop offset="100%" style="stop-color:#D97706"/>
        </linearGradient>
    </defs>
    <path d="M30 2L54.5 16V44L30 58L5.5 44V16L30 2Z" fill="url(#goldGradient)"/>
    <!-- Scales of Justice -->
    <g fill="#0A0A0F">
        <!-- Center pole -->
        <rect x="28" y="16" width="4" height="26" rx="1"/>
        <!-- Top beam -->
        <rect x="14" y="18" width="32" height="3" rx="1"/>
        <!-- Left scale pan -->
        <path d="M14 22L10 34H22L18 22H14Z"/>
        <ellipse cx="16" cy="35" rx="7" ry="2"/>
        <!-- Right scale pan -->
        <path d="M42 22L38 32H50L46 22H42Z"/>
        <ellipse cx="44" cy="33" rx="7" ry="2"/>
        <!-- Base -->
        <path d="M22 42H38L36 44H24L22 42Z"/>
        <ellipse cx="30" cy="45" rx="10" ry="2"/>
    </g>
</svg>
